<svg version="1.1" id="Layer_1" xmlns="http://www.w3.org/2000/svg" xmlns:xlink="http://www.w3.org/1999/xlink" x="0px" y="0px"
	 width="100%" viewBox="0 0 512 512" enable-background="new 0 0 512 512" xml:space="preserve">
<path fill="#FFFFFF" opacity="1.000000" stroke="none" 
	d="
M272.000000,513.000000 
	C181.355331,513.000000 91.210663,513.000000 1.032996,513.000000 
	C1.032996,342.396973 1.032996,171.793930 1.032996,1.095450 
	C171.561356,1.095450 342.122772,1.095450 512.842102,1.095450 
	C512.842102,171.666550 512.842102,342.333252 512.842102,513.000000 
	C432.793915,513.000000 352.646942,513.000000 272.000000,513.000000 
M244.500000,472.000122 
	C303.162109,472.000122 361.824951,471.844788 420.485718,472.126617 
	C432.723541,472.185394 443.747162,469.398773 453.199249,461.887787 
	C464.672668,452.770599 471.901031,440.830902 471.920807,425.863312 
	C472.067261,315.038574 471.912964,204.213394 472.123291,93.388878 
	C472.146545,81.145126 469.331329,70.119606 461.833954,60.695843 
	C452.835327,49.384987 440.991180,42.121281 426.238129,42.097469 
	C315.246826,41.918331 204.254974,42.088467 93.263809,41.874462 
	C81.004944,41.850830 69.985176,44.713951 60.595840,52.239204 
	C49.331940,61.266865 42.109924,73.117813 42.088280,87.886864 
	C41.925835,198.711548 42.080036,309.536713 41.886139,420.361267 
	C41.864773,432.573029 44.540001,443.580872 52.069149,453.098419 
	C61.188507,464.626099 73.083191,471.832092 88.012276,471.903870 
	C139.840469,472.153076 191.670609,472.000122 244.500000,472.000122 
z"/>
<path fill="#1E1E1E" opacity="1.000000" stroke="none" 
	d="
M244.000000,472.000122 
	C191.670609,472.000122 139.840469,472.153076 88.012276,471.903870 
	C73.083191,471.832092 61.188507,464.626099 52.069149,453.098419 
	C44.540001,443.580872 41.864773,432.573029 41.886139,420.361267 
	C42.080036,309.536713 41.925835,198.711548 42.088280,87.886864 
	C42.109924,73.117813 49.331940,61.266865 60.595840,52.239204 
	C69.985176,44.713951 81.004944,41.850830 93.263809,41.874462 
	C204.254974,42.088467 315.246826,41.918331 426.238129,42.097469 
	C440.991180,42.121281 452.835327,49.384987 461.833954,60.695843 
	C469.331329,70.119606 472.146545,81.145126 472.123291,93.388878 
	C471.912964,204.213394 472.067261,315.038574 471.920807,425.863312 
	C471.901031,440.830902 464.672668,452.770599 453.199249,461.887787 
	C443.747162,469.398773 432.723541,472.185394 420.485718,472.126617 
	C361.824951,471.844788 303.162109,472.000122 244.000000,472.000122 
M272.044647,229.480377 
	C260.218018,262.170776 248.391403,294.861206 236.401520,328.002930 
	C247.106140,328.002930 256.932312,327.853088 266.748993,328.092102 
	C269.784729,328.166016 270.236938,326.440491 270.910858,324.358032 
	C273.753967,315.572845 276.637848,306.800873 279.419891,298.289917 
	C297.910614,298.289917 315.835693,298.289917 333.681335,298.289917 
	C336.922913,308.340363 340.073639,318.109100 343.167023,327.700073 
	C354.579803,327.700073 365.623383,327.700073 377.008545,327.700073 
	C359.800629,278.855469 342.726349,230.390274 325.677338,181.996719 
	C314.422882,181.996719 303.762482,182.109207 293.107239,181.924149 
	C290.139557,181.872589 288.836212,182.770767 287.837219,185.623154 
	C282.787506,200.041321 277.468170,214.365067 272.044647,229.480377 
M167.879166,292.320251 
	C167.111908,286.076630 166.344666,279.833008 165.563217,273.473846 
	C156.190216,273.473846 146.824020,273.473846 136.898422,273.473846 
	C137.329895,280.494934 137.480484,287.144073 138.191040,293.732788 
	C140.460388,314.775787 150.795074,326.726837 170.782043,330.519714 
	C177.897858,331.870056 185.382996,332.143890 192.634491,331.740295 
	C211.612183,330.684021 225.044098,319.441437 229.407455,301.383942 
	C230.489502,296.906006 230.918304,292.170593 230.935394,287.550873 
	C231.059937,253.901825 231.002533,220.252121 231.002609,186.602615 
	C231.002609,185.163757 231.002594,183.724899 231.002594,182.267197 
	C220.741440,182.267197 211.008377,182.267197 200.997406,182.267197 
	C200.997406,184.166290 200.997406,185.806458 200.997406,187.446609 
	C200.997391,218.597382 201.022629,249.748199 200.967209,280.898865 
	C200.959824,285.050873 200.773056,289.230225 200.269775,293.348053 
	C199.172516,302.325500 194.498459,306.490143 185.471298,306.927765 
	C176.446915,307.365265 171.474136,303.439758 167.879166,292.320251 
z"/>
<path fill="#FDFDFD" opacity="1.000000" stroke="none" 
	d="
M272.143982,229.101151 
	C277.468170,214.365067 282.787506,200.041321 287.837219,185.623154 
	C288.836212,182.770767 290.139557,181.872589 293.107239,181.924149 
	C303.762482,182.109207 314.422882,181.996719 325.677338,181.996719 
	C342.726349,230.390274 359.800629,278.855469 377.008545,327.700073 
	C365.623383,327.700073 354.579803,327.700073 343.167023,327.700073 
	C340.073639,318.109100 336.922913,308.340363 333.681335,298.289917 
	C315.835693,298.289917 297.910614,298.289917 279.419891,298.289917 
	C276.637848,306.800873 273.753967,315.572845 270.910858,324.358032 
	C270.236938,326.440491 269.784729,328.166016 266.748993,328.092102 
	C256.932312,327.853088 247.106140,328.002930 236.401520,328.002930 
	C248.391403,294.861206 260.218018,262.170776 272.143982,229.101151 
M304.447540,218.068466 
	C298.710632,236.258453 292.973694,254.448441 287.167816,272.857178 
	C300.182526,272.857178 312.450989,272.857178 325.158539,272.857178 
	C318.931335,253.156204 312.785828,233.713715 306.331482,213.294113 
	C305.551208,215.294418 305.148926,216.325760 304.447540,218.068466 
z"/>
<path fill="#FEFEFE" opacity="1.000000" stroke="none" 
	d="
M167.941101,292.729309 
	C171.474136,303.439758 176.446915,307.365265 185.471298,306.927765 
	C194.498459,306.490143 199.172516,302.325500 200.269775,293.348053 
	C200.773056,289.230225 200.959824,285.050873 200.967209,280.898865 
	C201.022629,249.748199 200.997391,218.597382 200.997406,187.446609 
	C200.997406,185.806458 200.997406,184.166290 200.997406,182.267197 
	C211.008377,182.267197 220.741440,182.267197 231.002594,182.267197 
	C231.002594,183.724899 231.002609,185.163757 231.002609,186.602615 
	C231.002533,220.252121 231.059937,253.901825 230.935394,287.550873 
	C230.918304,292.170593 230.489502,296.906006 229.407455,301.383942 
	C225.044098,319.441437 211.612183,330.684021 192.634491,331.740295 
	C185.382996,332.143890 177.897858,331.870056 170.782043,330.519714 
	C150.795074,326.726837 140.460388,314.775787 138.191040,293.732788 
	C137.480484,287.144073 137.329895,280.494934 136.898422,273.473846 
	C146.824020,273.473846 156.190216,273.473846 165.563217,273.473846 
	C166.344666,279.833008 167.111908,286.076630 167.941101,292.729309 
z"/>
<path fill="#212121" opacity="1.000000" stroke="none" 
	d="
M304.597076,217.712784 
	C305.148926,216.325760 305.551208,215.294418 306.331482,213.294113 
	C312.785828,233.713715 318.931335,253.156204 325.158539,272.857178 
	C312.450989,272.857178 300.182526,272.857178 287.167816,272.857178 
	C292.973694,254.448441 298.710632,236.258453 304.597076,217.712784 
z"/>
</svg>